<svg width="64" height="65" viewBox="0 0 64 65" fill="none" xmlns="http://www.w3.org/2000/svg">
<rect y="0.267578" width="64" height="64" rx="20" fill="#2A5B45"/>
<path d="M27.7068 34.8938C27.3163 34.5033 26.6831 34.5033 26.2926 34.8938C25.902 35.2843 25.902 35.9175 26.2926 36.308L27.7068 34.8938ZM30.333 38.9342L29.6259 39.6414C30.0164 40.0319 30.6496 40.0319 31.0401 39.6414L30.333 38.9342ZM37.7068 32.9747C38.0973 32.5842 38.0973 31.951 37.7068 31.5605C37.3163 31.1699 36.6831 31.1699 36.2926 31.5605L37.7068 32.9747ZM42.6663 23.9342V43.9342H44.6663V23.9342H42.6663ZM40.333 46.2676H23.6663V48.2676H40.333V46.2676ZM21.333 43.9342V23.9342H19.333V43.9342H21.333ZM23.6663 21.6009H26.9997V19.6009H23.6663V21.6009ZM36.9997 21.6009H40.333V19.6009H36.9997V21.6009ZM23.6663 46.2676C22.3777 46.2676 21.333 45.2229 21.333 43.9342H19.333C19.333 46.3275 21.2731 48.2676 23.6663 48.2676V46.2676ZM42.6663 43.9342C42.6663 45.2229 41.6217 46.2676 40.333 46.2676V48.2676C42.7262 48.2676 44.6663 46.3275 44.6663 43.9342H42.6663ZM44.6663 23.9342C44.6663 21.541 42.7262 19.6009 40.333 19.6009V21.6009C41.6217 21.6009 42.6663 22.6456 42.6663 23.9342H44.6663ZM21.333 23.9342C21.333 22.6456 22.3777 21.6009 23.6663 21.6009V19.6009C21.2731 19.6009 19.333 21.541 19.333 23.9342H21.333ZM26.2926 36.308L29.6259 39.6414L31.0401 38.2271L27.7068 34.8938L26.2926 36.308ZM31.0401 39.6414L37.7068 32.9747L36.2926 31.5605L29.6259 38.2271L31.0401 39.6414ZM30.333 18.2676H33.6663V16.2676H30.333V18.2676ZM33.6663 22.9342H30.333V24.9342H33.6663V22.9342ZM30.333 22.9342C29.0443 22.9342 27.9997 21.8896 27.9997 20.6009H25.9997C25.9997 22.9941 27.9398 24.9342 30.333 24.9342V22.9342ZM35.9997 20.6009C35.9997 21.8896 34.955 22.9342 33.6663 22.9342V24.9342C36.0596 24.9342 37.9997 22.9941 37.9997 20.6009H35.9997ZM33.6663 18.2676C34.955 18.2676 35.9997 19.3122 35.9997 20.6009H37.9997C37.9997 18.2077 36.0596 16.2676 33.6663 16.2676V18.2676ZM30.333 16.2676C27.9398 16.2676 25.9997 18.2077 25.9997 20.6009H27.9997C27.9997 19.3122 29.0443 18.2676 30.333 18.2676V16.2676Z" fill="white"/>
</svg>
